<svg width="335" height="82" viewBox="0 0 335 82" fill="none" xmlns="http://www.w3.org/2000/svg">
<path d="M224.034 19.1794C224.034 19.9934 223.979 20.726 223.871 21.3772H207.387C207.523 23.0053 208.092 24.2806 209.096 25.2031C210.1 26.1257 211.335 26.587 212.8 26.587C214.917 26.587 216.423 25.678 217.318 23.86H223.464C222.813 26.0307 221.564 27.8216 219.719 29.2325C217.874 30.6164 215.609 31.3083 212.922 31.3083C210.752 31.3083 208.798 30.8334 207.061 29.8837C205.352 28.9069 204.009 27.5367 203.032 25.773C202.082 24.0092 201.607 21.9742 201.607 19.6678C201.607 17.3343 202.082 15.2857 203.032 13.522C203.982 11.7583 205.311 10.4016 207.021 9.45188C208.73 8.50219 210.697 8.02734 212.922 8.02734C215.066 8.02734 216.979 8.48862 218.661 9.41117C220.371 10.3337 221.687 11.6497 222.609 13.3592C223.559 15.0415 224.034 16.9815 224.034 19.1794ZM218.132 17.5514C218.105 16.0861 217.576 14.9194 216.545 14.0511C215.514 13.1557 214.252 12.708 212.759 12.708C211.349 12.708 210.155 13.1421 209.178 14.0104C208.228 14.8515 207.645 16.0319 207.428 17.5514H218.132Z" fill="white"/>
<path d="M193.722 13.0735V23.9814C193.722 24.7411 193.898 25.2974 194.251 25.6501C194.631 25.9757 195.255 26.1385 196.123 26.1385H198.769V30.9412H195.187C190.384 30.9412 187.983 28.6077 187.983 23.9407V13.0735H185.297V8.39292H187.983V2.81689H193.722V8.39292H198.769V13.0735H193.722Z" fill="white"/>
<path d="M157.838 19.5864C157.838 17.3072 158.286 15.2857 159.181 13.522C160.104 11.7583 161.338 10.4016 162.885 9.45188C164.459 8.50219 166.209 8.02734 168.135 8.02734C169.818 8.02734 171.283 8.36652 172.531 9.04487C173.806 9.72322 174.824 10.5779 175.583 11.609V8.39365H181.322V30.942H175.583V27.6452C174.851 28.7034 173.833 29.5853 172.531 30.2908C171.256 30.9691 169.777 31.3083 168.095 31.3083C166.195 31.3083 164.459 30.8199 162.885 29.843C161.338 28.8662 160.104 27.496 159.181 25.7322C158.286 23.9414 157.838 21.8928 157.838 19.5864ZM175.583 19.6678C175.583 18.284 175.312 17.1037 174.769 16.1268C174.227 15.1229 173.494 14.3631 172.572 13.8476C171.649 13.3049 170.659 13.0336 169.6 13.0336C168.542 13.0336 167.565 13.2913 166.67 13.8069C165.775 14.3224 165.042 15.0822 164.472 16.0861C163.929 17.063 163.658 18.2297 163.658 19.5864C163.658 20.9431 163.929 22.137 164.472 23.1681C165.042 24.172 165.775 24.9454 166.67 25.488C167.593 26.0307 168.569 26.3021 169.6 26.3021C170.659 26.3021 171.649 26.0443 172.572 25.5287C173.494 24.9861 174.227 24.2263 174.769 23.2495C175.312 22.2455 175.583 21.0516 175.583 19.6678Z" fill="white"/>
<path d="M148.341 11.8933C149.073 10.6994 150.023 9.76326 151.19 9.08491C152.384 8.40656 153.74 8.06738 155.26 8.06738V14.0504H153.754C151.963 14.0504 150.606 14.471 149.684 15.3122C148.788 16.1533 148.341 17.6185 148.341 19.7079V30.9413H142.643V8.39299H148.341V11.8933Z" fill="white"/>
<path d="M138.28 19.1794C138.28 19.9934 138.225 20.726 138.117 21.3772H121.633C121.769 23.0053 122.339 24.2806 123.342 25.2031C124.346 26.1257 125.581 26.587 127.046 26.587C129.163 26.587 130.669 25.678 131.564 23.86H137.71C137.059 26.0307 135.811 27.8216 133.965 29.2325C132.12 30.6164 129.855 31.3083 127.168 31.3083C124.998 31.3083 123.044 30.8334 121.307 29.8837C119.598 28.9069 118.255 27.5367 117.278 25.773C116.328 24.0092 115.854 21.9742 115.854 19.6678C115.854 17.3343 116.328 15.2857 117.278 13.522C118.228 11.7583 119.557 10.4016 121.267 9.45188C122.976 8.50219 124.943 8.02734 127.168 8.02734C129.312 8.02734 131.225 8.48862 132.907 9.41117C134.617 10.3337 135.933 11.6497 136.855 13.3592C137.805 15.0415 138.28 16.9815 138.28 19.1794ZM132.378 17.5514C132.351 16.0861 131.822 14.9194 130.791 14.0511C129.76 13.1557 128.498 12.708 127.006 12.708C125.595 12.708 124.401 13.1421 123.424 14.0104C122.474 14.8515 121.891 16.0319 121.674 17.5514H132.378Z" fill="white"/>
<path d="M111.487 0.822754V30.9414H105.789V0.822754H111.487Z" fill="white"/>
<path d="M101.424 19.1794C101.424 19.9934 101.37 20.726 101.261 21.3772H84.7776C84.9132 23.0053 85.4831 24.2806 86.487 25.2031C87.491 26.1257 88.7256 26.587 90.1908 26.587C92.3072 26.587 93.8132 25.678 94.7086 23.86H100.854C100.203 26.0307 98.9551 27.8216 97.11 29.2325C95.2649 30.6164 92.9992 31.3083 90.3129 31.3083C88.1422 31.3083 86.1885 30.8334 84.452 29.8837C82.7425 28.9069 81.3994 27.5367 80.4226 25.773C79.4729 24.0092 78.998 21.9742 78.998 19.6678C78.998 17.3343 79.4729 15.2857 80.4226 13.522C81.3723 11.7583 82.7018 10.4016 84.4113 9.45188C86.1207 8.50219 88.0879 8.02734 90.3129 8.02734C92.4565 8.02734 94.3694 8.48862 96.0517 9.41117C97.7612 10.3337 99.0772 11.6497 99.9997 13.3592C100.949 15.0415 101.424 16.9815 101.424 19.1794ZM95.5226 17.5514C95.4955 16.0861 94.9664 14.9194 93.9353 14.0511C92.9042 13.1557 91.6425 12.708 90.1501 12.708C88.7391 12.708 87.5452 13.1421 86.5684 14.0104C85.6187 14.8515 85.0354 16.0319 84.8183 17.5514H95.5226Z" fill="white"/>
<path d="M54.3125 19.6678C54.3125 17.3343 54.7873 15.2992 55.737 13.5627C56.6867 11.799 58.0027 10.4423 59.685 9.49258C61.3673 8.51575 63.2938 8.02734 65.4645 8.02734C68.2593 8.02734 70.5657 8.73283 72.3837 10.1438C74.2288 11.5276 75.4634 13.4813 76.0875 16.0047H69.9417C69.616 15.0279 69.0598 14.2682 68.2729 13.7255C67.5132 13.1557 66.5635 12.8708 65.4239 12.8708C63.7958 12.8708 62.507 13.4677 61.5573 14.6616C60.6076 15.8284 60.1327 17.4971 60.1327 19.6678C60.1327 21.8114 60.6076 23.4801 61.5573 24.674C62.507 25.8408 63.7958 26.4242 65.4239 26.4242C67.7302 26.4242 69.2362 25.3931 69.9417 23.3309H76.0875C75.4634 25.773 74.2288 27.713 72.3837 29.1511C70.5386 30.5892 68.2322 31.3083 65.4645 31.3083C63.2938 31.3083 61.3673 30.8334 59.685 29.8837C58.0027 28.9069 56.6867 27.5502 55.737 25.8137C54.7873 24.0499 54.3125 22.0013 54.3125 19.6678Z" fill="white"/>
<path d="M29.623 19.6678C29.623 17.3343 30.0979 15.2992 31.0476 13.5627C31.9973 11.799 33.3133 10.4423 34.9956 9.49258C36.6779 8.51575 38.6044 8.02734 40.7751 8.02734C43.5699 8.02734 45.8763 8.73283 47.6943 10.1438C49.5394 11.5276 50.774 13.4813 51.398 16.0047H45.2522C44.9266 15.0279 44.3704 14.2682 43.5835 13.7255C42.8237 13.1557 41.874 12.8708 40.7344 12.8708C39.1064 12.8708 37.8175 13.4677 36.8678 14.6616C35.9181 15.8284 35.4433 17.4971 35.4433 19.6678C35.4433 21.8114 35.9181 23.4801 36.8678 24.674C37.8175 25.8408 39.1064 26.4242 40.7344 26.4242C43.0408 26.4242 44.5467 25.3931 45.2522 23.3309H51.398C50.774 25.773 49.5394 27.713 47.6943 29.1511C45.8492 30.5892 43.5428 31.3083 40.7751 31.3083C38.6044 31.3083 36.6779 30.8334 34.9956 29.8837C33.3133 28.9069 31.9973 27.5502 31.0476 25.8137C30.0979 24.0499 29.623 22.0013 29.623 19.6678Z" fill="white"/>
<path d="M19.1701 25.5284H7.85528L5.98304 30.9417H0L10.2159 2.4917H16.8502L27.0661 30.9417H21.0424L19.1701 25.5284ZM17.6235 20.9699L13.5127 9.08525L9.40192 20.9699H17.6235Z" fill="white"/>
<path d="M268.958 8.1643L264.468 18.7846L261.929 24.788C261.924 24.8037 261.918 24.8169 261.91 24.8325C261.829 25.0006 261.654 25.1188 261.456 25.1188C261.267 25.1188 261.103 25.0138 261.016 24.8616L261.014 24.8562C260.998 24.8274 260.985 24.7959 260.974 24.7643L260.972 24.7565L258.446 18.7846L255.648 12.1672C254.924 10.4426 253.485 9.09614 251.705 8.49757C251.051 8.27718 250.35 8.15648 249.621 8.15648C248.891 8.15648 248.19 8.27718 247.536 8.49757C245.758 9.09614 244.32 10.4453 243.596 12.1672L236.557 28.812L242.116 31.1797L246.611 20.5513L249.158 14.5271C249.234 14.3434 249.414 14.2173 249.621 14.2173C249.814 14.2173 249.979 14.3251 250.065 14.4824L250.089 14.5349L252.633 20.5513L255.415 27.132L255.449 27.2107C256.179 28.9117 257.606 30.2427 259.371 30.8384C260.025 31.059 260.726 31.1797 261.456 31.1797C262.185 31.1797 262.888 31.059 263.542 30.8359C265.32 30.2373 266.756 28.8907 267.48 27.1714L274.519 10.532L268.958 8.1643Z" fill="#F0FA00"/>
<path d="M334.924 8.39404L328.331 30.9424H322.185L318.074 15.1911L313.963 30.9424H307.777L301.143 8.39404H306.922L310.911 25.5698L315.225 8.39404H321.249L325.482 25.5291L329.47 8.39404H334.924Z" fill="white"/>
<path d="M287.521 31.3088C285.35 31.3088 283.397 30.8339 281.66 29.8842C279.923 28.9074 278.553 27.5371 277.549 25.7734C276.572 24.0097 276.084 21.9747 276.084 19.6683C276.084 17.3619 276.586 15.3269 277.59 13.5632C278.621 11.7995 280.018 10.4428 281.782 9.49307C283.546 8.51624 285.513 8.02783 287.684 8.02783C289.854 8.02783 291.822 8.51624 293.585 9.49307C295.349 10.4428 296.733 11.7995 297.737 13.5632C298.768 15.3269 299.284 17.3619 299.284 19.6683C299.284 21.9747 298.754 24.0097 297.696 25.7734C296.665 27.5371 295.254 28.9074 293.463 29.8842C291.7 30.8339 289.719 31.3088 287.521 31.3088ZM287.521 26.3433C288.552 26.3433 289.515 26.099 290.411 25.6106C291.333 25.0951 292.066 24.3353 292.609 23.3314C293.151 22.3274 293.423 21.1064 293.423 19.6683C293.423 17.5247 292.853 15.8831 291.713 14.7435C290.601 13.5767 289.23 12.9933 287.602 12.9933C285.974 12.9933 284.604 13.5767 283.492 14.7435C282.406 15.8831 281.864 17.5247 281.864 19.6683C281.864 21.8119 282.393 23.4671 283.451 24.6338C284.536 25.7734 285.893 26.3433 287.521 26.3433Z" fill="white"/>
<path d="M87.0493 60.3086L83.4133 56.4326V60.3086H82.5733V51.9206H83.4133V55.8446L87.0493 51.9206H88.1173L84.1933 56.1086L88.1533 60.3086H87.0493ZM92.2916 60.4046C91.6756 60.4046 91.1196 60.2686 90.6236 59.9966C90.1356 59.7166 89.7476 59.3246 89.4596 58.8206C89.1796 58.3086 89.0396 57.7126 89.0396 57.0326C89.0396 56.3526 89.1836 55.7606 89.4716 55.2566C89.7596 54.7446 90.1516 54.3526 90.6476 54.0806C91.1436 53.8006 91.6996 53.6606 92.3156 53.6606C92.9316 53.6606 93.4876 53.8006 93.9836 54.0806C94.4876 54.3526 94.8796 54.7446 95.1596 55.2566C95.4476 55.7606 95.5916 56.3526 95.5916 57.0326C95.5916 57.7046 95.4476 58.2966 95.1596 58.8086C94.8716 59.3206 94.4756 59.7166 93.9716 59.9966C93.4676 60.2686 92.9076 60.4046 92.2916 60.4046ZM92.2916 59.6726C92.7236 59.6726 93.1236 59.5766 93.4916 59.3846C93.8596 59.1846 94.1556 58.8886 94.3796 58.4966C94.6116 58.0966 94.7276 57.6086 94.7276 57.0326C94.7276 56.4566 94.6156 55.9726 94.3916 55.5806C94.1676 55.1806 93.8716 54.8846 93.5036 54.6926C93.1356 54.4926 92.7356 54.3926 92.3036 54.3926C91.8716 54.3926 91.4716 54.4926 91.1036 54.6926C90.7356 54.8846 90.4396 55.1806 90.2156 55.5806C89.9996 55.9726 89.8916 56.4566 89.8916 57.0326C89.8916 57.6086 89.9996 58.0966 90.2156 58.4966C90.4396 58.8886 90.7316 59.1846 91.0916 59.3846C91.4596 59.5766 91.8596 59.6726 92.2916 59.6726ZM100.225 53.6366C101.009 53.6366 101.649 53.8806 102.145 54.3686C102.641 54.8486 102.889 55.5486 102.889 56.4686V60.3086H102.061V56.5646C102.061 55.8526 101.881 55.3086 101.521 54.9326C101.169 54.5566 100.685 54.3686 100.069 54.3686C99.4368 54.3686 98.9328 54.5686 98.5568 54.9686C98.1808 55.3686 97.9928 55.9566 97.9928 56.7326V60.3086H97.1528V53.7566H97.9928V54.8726C98.2008 54.4726 98.5008 54.1686 98.8928 53.9606C99.2848 53.7446 99.7288 53.6366 100.225 53.6366ZM110.705 56.6966C110.705 56.9846 110.697 57.2046 110.681 57.3566H105.245C105.269 57.8526 105.389 58.2766 105.605 58.6286C105.821 58.9806 106.105 59.2486 106.457 59.4326C106.809 59.6086 107.193 59.6966 107.609 59.6966C108.153 59.6966 108.609 59.5646 108.977 59.3006C109.353 59.0366 109.601 58.6806 109.721 58.2326H110.609C110.449 58.8726 110.105 59.3966 109.577 59.8046C109.057 60.2046 108.401 60.4046 107.609 60.4046C106.993 60.4046 106.441 60.2686 105.953 59.9966C105.465 59.7166 105.081 59.3246 104.801 58.8206C104.529 58.3086 104.393 57.7126 104.393 57.0326C104.393 56.3526 104.529 55.7566 104.801 55.2446C105.073 54.7326 105.453 54.3406 105.941 54.0686C106.429 53.7966 106.985 53.6606 107.609 53.6606C108.233 53.6606 108.777 53.7966 109.241 54.0686C109.713 54.3406 110.073 54.7086 110.321 55.1726C110.577 55.6286 110.705 56.1366 110.705 56.6966ZM109.853 56.6726C109.861 56.1846 109.761 55.7686 109.553 55.4246C109.353 55.0806 109.077 54.8206 108.725 54.6446C108.373 54.4686 107.989 54.3806 107.573 54.3806C106.949 54.3806 106.417 54.5806 105.977 54.9806C105.537 55.3806 105.293 55.9446 105.245 56.6726H109.853ZM111.887 57.0326C111.887 56.3526 112.023 55.7606 112.295 55.2566C112.567 54.7446 112.943 54.3526 113.423 54.0806C113.903 53.8006 114.451 53.6606 115.067 53.6606C115.875 53.6606 116.539 53.8606 117.059 54.2606C117.587 54.6606 117.927 55.2046 118.079 55.8926H117.179C117.067 55.4206 116.823 55.0526 116.447 54.7886C116.079 54.5166 115.619 54.3806 115.067 54.3806C114.627 54.3806 114.231 54.4806 113.879 54.6806C113.527 54.8806 113.247 55.1806 113.039 55.5806C112.839 55.9726 112.739 56.4566 112.739 57.0326C112.739 57.6086 112.839 58.0966 113.039 58.4966C113.247 58.8966 113.527 59.1966 113.879 59.3966C114.231 59.5966 114.627 59.6966 115.067 59.6966C115.619 59.6966 116.079 59.5646 116.447 59.3006C116.823 59.0286 117.067 58.6526 117.179 58.1726H118.079C117.927 58.8446 117.587 59.3846 117.059 59.7926C116.531 60.2006 115.867 60.4046 115.067 60.4046C114.451 60.4046 113.903 60.2686 113.423 59.9966C112.943 59.7166 112.567 59.3246 112.295 58.8206C112.023 58.3086 111.887 57.7126 111.887 57.0326ZM120.753 54.4646V58.5326C120.753 58.9326 120.829 59.2086 120.981 59.3606C121.133 59.5126 121.401 59.5886 121.785 59.5886H122.553V60.3086H121.653C121.061 60.3086 120.621 60.1726 120.333 59.9006C120.045 59.6206 119.901 59.1646 119.901 58.5326V54.4646H118.989V53.7566H119.901V52.1126H120.753V53.7566H122.553V54.4646H120.753ZM123.584 57.0206C123.584 56.3486 123.716 55.7606 123.98 55.2566C124.252 54.7446 124.624 54.3526 125.096 54.0806C125.576 53.8006 126.116 53.6606 126.716 53.6606C127.34 53.6606 127.876 53.8046 128.324 54.0926C128.78 54.3806 129.108 54.7486 129.308 55.1966V53.7566H130.148V60.3086H129.308V58.8566C129.1 59.3046 128.768 59.6766 128.312 59.9726C127.864 60.2606 127.328 60.4046 126.704 60.4046C126.112 60.4046 125.576 60.2646 125.096 59.9846C124.624 59.7046 124.252 59.3086 123.98 58.7966C123.716 58.2846 123.584 57.6926 123.584 57.0206ZM129.308 57.0326C129.308 56.5046 129.2 56.0406 128.984 55.6406C128.768 55.2406 128.472 54.9326 128.096 54.7166C127.728 54.5006 127.32 54.3926 126.872 54.3926C126.408 54.3926 125.992 54.4966 125.624 54.7046C125.256 54.9126 124.964 55.2166 124.748 55.6166C124.54 56.0086 124.436 56.4766 124.436 57.0206C124.436 57.5566 124.54 58.0286 124.748 58.4366C124.964 58.8366 125.256 59.1446 125.624 59.3606C125.992 59.5686 126.408 59.6726 126.872 59.6726C127.32 59.6726 127.728 59.5646 128.096 59.3486C128.472 59.1326 128.768 58.8246 128.984 58.4246C129.2 58.0246 129.308 57.5606 129.308 57.0326ZM136.259 59.6246H139.271V60.3086H135.419V51.9206H136.259V59.6246ZM146.428 56.6966C146.428 56.9846 146.42 57.2046 146.404 57.3566H140.968C140.992 57.8526 141.112 58.2766 141.328 58.6286C141.544 58.9806 141.828 59.2486 142.18 59.4326C142.532 59.6086 142.916 59.6966 143.332 59.6966C143.876 59.6966 144.332 59.5646 144.7 59.3006C145.076 59.0366 145.324 58.6806 145.444 58.2326H146.332C146.172 58.8726 145.828 59.3966 145.3 59.8046C144.78 60.2046 144.124 60.4046 143.332 60.4046C142.716 60.4046 142.164 60.2686 141.676 59.9966C141.188 59.7166 140.804 59.3246 140.524 58.8206C140.252 58.3086 140.116 57.7126 140.116 57.0326C140.116 56.3526 140.252 55.7566 140.524 55.2446C140.796 54.7326 141.176 54.3406 141.664 54.0686C142.152 53.7966 142.708 53.6606 143.332 53.6606C143.956 53.6606 144.5 53.7966 144.964 54.0686C145.436 54.3406 145.796 54.7086 146.044 55.1726C146.3 55.6286 146.428 56.1366 146.428 56.6966ZM145.576 56.6726C145.584 56.1846 145.484 55.7686 145.276 55.4246C145.076 55.0806 144.8 54.8206 144.448 54.6446C144.096 54.4686 143.712 54.3806 143.296 54.3806C142.672 54.3806 142.14 54.5806 141.7 54.9806C141.26 55.3806 141.016 55.9446 140.968 56.6726H145.576ZM147.61 57.0206C147.61 56.3486 147.742 55.7606 148.006 55.2566C148.278 54.7446 148.65 54.3526 149.122 54.0806C149.602 53.8006 150.142 53.6606 150.742 53.6606C151.366 53.6606 151.902 53.8046 152.35 54.0926C152.806 54.3806 153.134 54.7486 153.334 55.1966V53.7566H154.174V60.3086H153.334V58.8566C153.126 59.3046 152.794 59.6766 152.338 59.9726C151.89 60.2606 151.354 60.4046 150.73 60.4046C150.138 60.4046 149.602 60.2646 149.122 59.9846C148.65 59.7046 148.278 59.3086 148.006 58.7966C147.742 58.2846 147.61 57.6926 147.61 57.0206ZM153.334 57.0326C153.334 56.5046 153.226 56.0406 153.01 55.6406C152.794 55.2406 152.498 54.9326 152.122 54.7166C151.754 54.5006 151.346 54.3926 150.898 54.3926C150.434 54.3926 150.018 54.4966 149.65 54.7046C149.282 54.9126 148.99 55.2166 148.774 55.6166C148.566 56.0086 148.462 56.4766 148.462 57.0206C148.462 57.5566 148.566 58.0286 148.774 58.4366C148.99 58.8366 149.282 59.1446 149.65 59.3606C150.018 59.5686 150.434 59.6726 150.898 59.6726C151.346 59.6726 151.754 59.5646 152.122 59.3486C152.498 59.1326 152.794 58.8246 153.01 58.4246C153.226 58.0246 153.334 57.5606 153.334 57.0326ZM155.738 57.0206C155.738 56.3486 155.874 55.7606 156.146 55.2566C156.418 54.7446 156.79 54.3526 157.262 54.0806C157.742 53.8006 158.282 53.6606 158.882 53.6606C159.458 53.6606 159.978 53.8006 160.442 54.0806C160.906 54.3606 161.246 54.7246 161.462 55.1726V51.4286H162.302V60.3086H161.462V58.8446C161.262 59.3006 160.934 59.6766 160.478 59.9726C160.022 60.2606 159.486 60.4046 158.87 60.4046C158.27 60.4046 157.73 60.2646 157.25 59.9846C156.778 59.7046 156.406 59.3086 156.134 58.7966C155.87 58.2846 155.738 57.6926 155.738 57.0206ZM161.462 57.0326C161.462 56.5046 161.354 56.0406 161.138 55.6406C160.922 55.2406 160.626 54.9326 160.25 54.7166C159.882 54.5006 159.474 54.3926 159.026 54.3926C158.562 54.3926 158.146 54.4966 157.778 54.7046C157.41 54.9126 157.118 55.2166 156.902 55.6166C156.694 56.0086 156.59 56.4766 156.59 57.0206C156.59 57.5566 156.694 58.0286 156.902 58.4366C157.118 58.8366 157.41 59.1446 157.778 59.3606C158.146 59.5686 158.562 59.6726 159.026 59.6726C159.474 59.6726 159.882 59.5646 160.25 59.3486C160.626 59.1326 160.922 58.8246 161.138 58.4246C161.354 58.0246 161.462 57.5606 161.462 57.0326ZM170.178 56.6966C170.178 56.9846 170.17 57.2046 170.154 57.3566H164.718C164.742 57.8526 164.862 58.2766 165.078 58.6286C165.294 58.9806 165.578 59.2486 165.93 59.4326C166.282 59.6086 166.666 59.6966 167.082 59.6966C167.626 59.6966 168.082 59.5646 168.45 59.3006C168.826 59.0366 169.074 58.6806 169.194 58.2326H170.082C169.922 58.8726 169.578 59.3966 169.05 59.8046C168.53 60.2046 167.874 60.4046 167.082 60.4046C166.466 60.4046 165.914 60.2686 165.426 59.9966C164.938 59.7166 164.554 59.3246 164.274 58.8206C164.002 58.3086 163.866 57.7126 163.866 57.0326C163.866 56.3526 164.002 55.7566 164.274 55.2446C164.546 54.7326 164.926 54.3406 165.414 54.0686C165.902 53.7966 166.458 53.6606 167.082 53.6606C167.706 53.6606 168.25 53.7966 168.714 54.0686C169.186 54.3406 169.546 54.7086 169.794 55.1726C170.05 55.6286 170.178 56.1366 170.178 56.6966ZM169.326 56.6726C169.334 56.1846 169.234 55.7686 169.026 55.4246C168.826 55.0806 168.55 54.8206 168.198 54.6446C167.846 54.4686 167.462 54.3806 167.046 54.3806C166.422 54.3806 165.89 54.5806 165.45 54.9806C165.01 55.3806 164.766 55.9446 164.718 56.6726H169.326ZM172.585 54.9206C172.769 54.5126 173.049 54.1966 173.425 53.9726C173.809 53.7486 174.277 53.6366 174.829 53.6366V54.5126H174.601C173.993 54.5126 173.505 54.6766 173.137 55.0046C172.769 55.3326 172.585 55.8806 172.585 56.6486V60.3086H171.745V53.7566H172.585V54.9206ZM178.378 60.4046C177.626 60.4046 177.01 60.2326 176.53 59.8886C176.058 59.5366 175.794 59.0606 175.738 58.4606H176.602C176.642 58.8286 176.814 59.1286 177.118 59.3606C177.43 59.5846 177.846 59.6966 178.366 59.6966C178.822 59.6966 179.178 59.5886 179.434 59.3726C179.698 59.1566 179.83 58.8886 179.83 58.5686C179.83 58.3446 179.758 58.1606 179.614 58.0166C179.47 57.8726 179.286 57.7606 179.062 57.6806C178.846 57.5926 178.55 57.5006 178.174 57.4046C177.686 57.2766 177.29 57.1486 176.986 57.0206C176.682 56.8926 176.422 56.7046 176.206 56.4566C175.998 56.2006 175.894 55.8606 175.894 55.4366C175.894 55.1166 175.99 54.8206 176.182 54.5486C176.374 54.2766 176.646 54.0606 176.998 53.9006C177.35 53.7406 177.75 53.6606 178.198 53.6606C178.902 53.6606 179.47 53.8406 179.902 54.2006C180.334 54.5526 180.566 55.0406 180.598 55.6646H179.758C179.734 55.2806 179.582 54.9726 179.302 54.7406C179.03 54.5006 178.654 54.3806 178.174 54.3806C177.75 54.3806 177.406 54.4806 177.142 54.6806C176.878 54.8806 176.746 55.1286 176.746 55.4246C176.746 55.6806 176.822 55.8926 176.974 56.0606C177.134 56.2206 177.33 56.3486 177.562 56.4446C177.794 56.5326 178.106 56.6326 178.498 56.7446C178.97 56.8726 179.346 56.9966 179.626 57.1166C179.906 57.2366 180.146 57.4126 180.346 57.6446C180.546 57.8766 180.65 58.1846 180.658 58.5686C180.658 58.9206 180.562 59.2366 180.37 59.5166C180.178 59.7886 179.91 60.0046 179.566 60.1646C179.222 60.3246 178.826 60.4046 178.378 60.4046ZM185.208 56.1086C185.208 55.2846 185.388 54.5486 185.748 53.9006C186.108 53.2446 186.6 52.7366 187.224 52.3766C187.848 52.0086 188.544 51.8246 189.312 51.8246C190.248 51.8246 191.048 52.0486 191.712 52.4966C192.384 52.9366 192.872 53.5606 193.176 54.3686H192.192C191.952 53.8006 191.584 53.3566 191.088 53.0366C190.6 52.7166 190.008 52.5566 189.312 52.5566C188.696 52.5566 188.14 52.7006 187.644 52.9886C187.156 53.2766 186.772 53.6926 186.492 54.2366C186.212 54.7726 186.072 55.3966 186.072 56.1086C186.072 56.8206 186.212 57.4446 186.492 57.9806C186.772 58.5166 187.156 58.9286 187.644 59.2166C188.14 59.5046 188.696 59.6486 189.312 59.6486C190.008 59.6486 190.6 59.4926 191.088 59.1806C191.584 58.8606 191.952 58.4206 192.192 57.8606H193.176C192.872 58.6606 192.384 59.2806 191.712 59.7206C191.04 60.1606 190.24 60.3806 189.312 60.3806C188.544 60.3806 187.848 60.2006 187.224 59.8406C186.6 59.4726 186.108 58.9646 185.748 58.3166C185.388 57.6686 185.208 56.9326 185.208 56.1086ZM197.748 60.4046C197.132 60.4046 196.576 60.2686 196.08 59.9966C195.592 59.7166 195.204 59.3246 194.916 58.8206C194.636 58.3086 194.496 57.7126 194.496 57.0326C194.496 56.3526 194.64 55.7606 194.928 55.2566C195.216 54.7446 195.608 54.3526 196.104 54.0806C196.6 53.8006 197.156 53.6606 197.772 53.6606C198.388 53.6606 198.944 53.8006 199.44 54.0806C199.944 54.3526 200.336 54.7446 200.616 55.2566C200.904 55.7606 201.048 56.3526 201.048 57.0326C201.048 57.7046 200.904 58.2966 200.616 58.8086C200.328 59.3206 199.932 59.7166 199.428 59.9966C198.924 60.2686 198.364 60.4046 197.748 60.4046ZM197.748 59.6726C198.18 59.6726 198.58 59.5766 198.948 59.3846C199.316 59.1846 199.612 58.8886 199.836 58.4966C200.068 58.0966 200.184 57.6086 200.184 57.0326C200.184 56.4566 200.072 55.9726 199.848 55.5806C199.624 55.1806 199.328 54.8846 198.96 54.6926C198.592 54.4926 198.192 54.3926 197.76 54.3926C197.328 54.3926 196.928 54.4926 196.56 54.6926C196.192 54.8846 195.896 55.1806 195.672 55.5806C195.456 55.9726 195.348 56.4566 195.348 57.0326C195.348 57.6086 195.456 58.0966 195.672 58.4966C195.896 58.8886 196.188 59.1846 196.548 59.3846C196.916 59.5766 197.316 59.6726 197.748 59.6726ZM205.681 53.6366C206.465 53.6366 207.105 53.8806 207.601 54.3686C208.097 54.8486 208.345 55.5486 208.345 56.4686V60.3086H207.517V56.5646C207.517 55.8526 207.337 55.3086 206.977 54.9326C206.625 54.5566 206.141 54.3686 205.525 54.3686C204.893 54.3686 204.389 54.5686 204.013 54.9686C203.637 55.3686 203.449 55.9566 203.449 56.7326V60.3086H202.609V53.7566H203.449V54.8726C203.657 54.4726 203.957 54.1686 204.349 53.9606C204.741 53.7446 205.185 53.6366 205.681 53.6366ZM212.561 59.4926L214.769 53.7566H215.657L213.029 60.3086H212.081L209.453 53.7566H210.353L212.561 59.4926ZM222.754 56.6966C222.754 56.9846 222.746 57.2046 222.73 57.3566H217.294C217.318 57.8526 217.438 58.2766 217.654 58.6286C217.87 58.9806 218.154 59.2486 218.506 59.4326C218.858 59.6086 219.242 59.6966 219.658 59.6966C220.202 59.6966 220.658 59.5646 221.026 59.3006C221.402 59.0366 221.65 58.6806 221.77 58.2326H222.658C222.498 58.8726 222.154 59.3966 221.626 59.8046C221.106 60.2046 220.45 60.4046 219.658 60.4046C219.042 60.4046 218.49 60.2686 218.002 59.9966C217.514 59.7166 217.13 59.3246 216.85 58.8206C216.578 58.3086 216.442 57.7126 216.442 57.0326C216.442 56.3526 216.578 55.7566 216.85 55.2446C217.122 54.7326 217.502 54.3406 217.99 54.0686C218.478 53.7966 219.034 53.6606 219.658 53.6606C220.282 53.6606 220.826 53.7966 221.29 54.0686C221.762 54.3406 222.122 54.7086 222.37 55.1726C222.626 55.6286 222.754 56.1366 222.754 56.6966ZM221.902 56.6726C221.91 56.1846 221.81 55.7686 221.602 55.4246C221.402 55.0806 221.126 54.8206 220.774 54.6446C220.422 54.4686 220.038 54.3806 219.622 54.3806C218.998 54.3806 218.466 54.5806 218.026 54.9806C217.586 55.3806 217.342 55.9446 217.294 56.6726H221.902ZM227.392 53.6366C228.176 53.6366 228.816 53.8806 229.312 54.3686C229.808 54.8486 230.056 55.5486 230.056 56.4686V60.3086H229.228V56.5646C229.228 55.8526 229.048 55.3086 228.688 54.9326C228.336 54.5566 227.852 54.3686 227.236 54.3686C226.604 54.3686 226.1 54.5686 225.724 54.9686C225.348 55.3686 225.16 55.9566 225.16 56.7326V60.3086H224.32V53.7566H225.16V54.8726C225.368 54.4726 225.668 54.1686 226.06 53.9606C226.452 53.7446 226.896 53.6366 227.392 53.6366ZM233.036 54.4646V58.5326C233.036 58.9326 233.112 59.2086 233.264 59.3606C233.416 59.5126 233.684 59.5886 234.068 59.5886H234.836V60.3086H233.936C233.344 60.3086 232.904 60.1726 232.616 59.9006C232.328 59.6206 232.184 59.1646 232.184 58.5326V54.4646H231.272V53.7566H232.184V52.1126H233.036V53.7566H234.836V54.4646H233.036ZM236.672 52.5206C236.504 52.5206 236.36 52.4606 236.24 52.3406C236.12 52.2206 236.06 52.0726 236.06 51.8966C236.06 51.7206 236.12 51.5766 236.24 51.4646C236.36 51.3446 236.504 51.2846 236.672 51.2846C236.84 51.2846 236.984 51.3446 237.104 51.4646C237.224 51.5766 237.284 51.7206 237.284 51.8966C237.284 52.0726 237.224 52.2206 237.104 52.3406C236.984 52.4606 236.84 52.5206 236.672 52.5206ZM237.092 53.7566V60.3086H236.252V53.7566H237.092ZM241.892 60.4046C241.276 60.4046 240.72 60.2686 240.224 59.9966C239.736 59.7166 239.348 59.3246 239.06 58.8206C238.78 58.3086 238.64 57.7126 238.64 57.0326C238.64 56.3526 238.784 55.7606 239.072 55.2566C239.36 54.7446 239.752 54.3526 240.248 54.0806C240.744 53.8006 241.3 53.6606 241.916 53.6606C242.532 53.6606 243.088 53.8006 243.584 54.0806C244.088 54.3526 244.48 54.7446 244.76 55.2566C245.048 55.7606 245.192 56.3526 245.192 57.0326C245.192 57.7046 245.048 58.2966 244.76 58.8086C244.472 59.3206 244.076 59.7166 243.572 59.9966C243.068 60.2686 242.508 60.4046 241.892 60.4046ZM241.892 59.6726C242.324 59.6726 242.724 59.5766 243.092 59.3846C243.46 59.1846 243.756 58.8886 243.98 58.4966C244.212 58.0966 244.328 57.6086 244.328 57.0326C244.328 56.4566 244.216 55.9726 243.992 55.5806C243.768 55.1806 243.472 54.8846 243.104 54.6926C242.736 54.4926 242.336 54.3926 241.904 54.3926C241.472 54.3926 241.072 54.4926 240.704 54.6926C240.336 54.8846 240.04 55.1806 239.816 55.5806C239.6 55.9726 239.492 56.4566 239.492 57.0326C239.492 57.6086 239.6 58.0966 239.816 58.4966C240.04 58.8886 240.332 59.1846 240.692 59.3846C241.06 59.5766 241.46 59.6726 241.892 59.6726ZM249.825 53.6366C250.609 53.6366 251.249 53.8806 251.745 54.3686C252.241 54.8486 252.489 55.5486 252.489 56.4686V60.3086H251.661V56.5646C251.661 55.8526 251.481 55.3086 251.121 54.9326C250.769 54.5566 250.285 54.3686 249.669 54.3686C249.037 54.3686 248.533 54.5686 248.157 54.9686C247.781 55.3686 247.593 55.9566 247.593 56.7326V60.3086H246.753V53.7566H247.593V54.8726C247.801 54.4726 248.101 54.1686 248.493 53.9606C248.885 53.7446 249.329 53.6366 249.825 53.6366Z" fill="white"/>
<path d="M125.376 76.3086H124.536L119.892 69.2526V76.3086H119.052V67.9206H119.892L124.536 74.9646V67.9206H125.376V76.3086ZM130.177 76.4046C129.561 76.4046 129.005 76.2686 128.509 75.9966C128.021 75.7166 127.633 75.3246 127.345 74.8206C127.065 74.3086 126.925 73.7126 126.925 73.0326C126.925 72.3526 127.069 71.7606 127.357 71.2566C127.645 70.7446 128.037 70.3526 128.533 70.0806C129.029 69.8006 129.585 69.6606 130.201 69.6606C130.817 69.6606 131.373 69.8006 131.869 70.0806C132.373 70.3526 132.765 70.7446 133.045 71.2566C133.333 71.7606 133.477 72.3526 133.477 73.0326C133.477 73.7046 133.333 74.2966 133.045 74.8086C132.757 75.3206 132.361 75.7166 131.857 75.9966C131.353 76.2686 130.793 76.4046 130.177 76.4046ZM130.177 75.6726C130.609 75.6726 131.009 75.5766 131.377 75.3846C131.745 75.1846 132.041 74.8886 132.265 74.4966C132.497 74.0966 132.613 73.6086 132.613 73.0326C132.613 72.4566 132.501 71.9726 132.277 71.5806C132.053 71.1806 131.757 70.8846 131.389 70.6926C131.021 70.4926 130.621 70.3926 130.189 70.3926C129.757 70.3926 129.357 70.4926 128.989 70.6926C128.621 70.8846 128.325 71.1806 128.101 71.5806C127.885 71.9726 127.777 72.4566 127.777 73.0326C127.777 73.6086 127.885 74.0966 128.101 74.4966C128.325 74.8886 128.617 75.1846 128.977 75.3846C129.345 75.5766 129.745 75.6726 130.177 75.6726ZM137.366 75.4926L139.574 69.7566H140.462L137.834 76.3086H136.886L134.258 69.7566H135.158L137.366 75.4926ZM147.558 72.6966C147.558 72.9846 147.55 73.2046 147.534 73.3566H142.098C142.122 73.8526 142.242 74.2766 142.458 74.6286C142.674 74.9806 142.958 75.2486 143.31 75.4326C143.662 75.6086 144.046 75.6966 144.462 75.6966C145.006 75.6966 145.462 75.5646 145.83 75.3006C146.206 75.0366 146.454 74.6806 146.574 74.2326H147.462C147.302 74.8726 146.958 75.3966 146.43 75.8046C145.91 76.2046 145.254 76.4046 144.462 76.4046C143.846 76.4046 143.294 76.2686 142.806 75.9966C142.318 75.7166 141.934 75.3246 141.654 74.8206C141.382 74.3086 141.246 73.7126 141.246 73.0326C141.246 72.3526 141.382 71.7566 141.654 71.2446C141.926 70.7326 142.306 70.3406 142.794 70.0686C143.282 69.7966 143.838 69.6606 144.462 69.6606C145.086 69.6606 145.63 69.7966 146.094 70.0686C146.566 70.3406 146.926 70.7086 147.174 71.1726C147.43 71.6286 147.558 72.1366 147.558 72.6966ZM146.706 72.6726C146.714 72.1846 146.614 71.7686 146.406 71.4246C146.206 71.0806 145.93 70.8206 145.578 70.6446C145.226 70.4686 144.842 70.3806 144.426 70.3806C143.802 70.3806 143.27 70.5806 142.83 70.9806C142.39 71.3806 142.146 71.9446 142.098 72.6726H146.706ZM156.925 69.6366C157.693 69.6366 158.317 69.8806 158.797 70.3686C159.285 70.8486 159.529 71.5486 159.529 72.4686V76.3086H158.701V72.5646C158.701 71.8526 158.529 71.3086 158.185 70.9326C157.841 70.5566 157.373 70.3686 156.781 70.3686C156.165 70.3686 155.673 70.5726 155.305 70.9806C154.937 71.3886 154.753 71.9806 154.753 72.7566V76.3086H153.925V72.5646C153.925 71.8526 153.753 71.3086 153.409 70.9326C153.065 70.5566 152.593 70.3686 151.993 70.3686C151.377 70.3686 150.885 70.5726 150.517 70.9806C150.149 71.3886 149.965 71.9806 149.965 72.7566V76.3086H149.125V69.7566H149.965V70.8846C150.173 70.4766 150.469 70.1686 150.853 69.9606C151.237 69.7446 151.665 69.6366 152.137 69.6366C152.705 69.6366 153.201 69.7726 153.625 70.0446C154.057 70.3166 154.369 70.7166 154.561 71.2446C154.737 70.7246 155.037 70.3286 155.461 70.0566C155.893 69.7766 156.381 69.6366 156.925 69.6366ZM162.253 71.2086C162.469 70.7526 162.801 70.3806 163.249 70.0926C163.705 69.8046 164.241 69.6606 164.857 69.6606C165.457 69.6606 165.993 69.8006 166.465 70.0806C166.937 70.3526 167.305 70.7446 167.569 71.2566C167.841 71.7606 167.977 72.3486 167.977 73.0206C167.977 73.6926 167.841 74.2846 167.569 74.7966C167.305 75.3086 166.933 75.7046 166.453 75.9846C165.981 76.2646 165.449 76.4046 164.857 76.4046C164.233 76.4046 163.693 76.2646 163.237 75.9846C162.789 75.6966 162.461 75.3246 162.253 74.8686V76.3086H161.425V67.4286H162.253V71.2086ZM167.125 73.0206C167.125 72.4766 167.017 72.0086 166.801 71.6166C166.593 71.2166 166.305 70.9126 165.937 70.7046C165.569 70.4966 165.153 70.3926 164.689 70.3926C164.241 70.3926 163.829 70.5006 163.453 70.7166C163.085 70.9326 162.793 71.2406 162.577 71.6406C162.361 72.0406 162.253 72.5046 162.253 73.0326C162.253 73.5606 162.361 74.0246 162.577 74.4246C162.793 74.8246 163.085 75.1326 163.453 75.3486C163.829 75.5646 164.241 75.6726 164.689 75.6726C165.153 75.6726 165.569 75.5686 165.937 75.3606C166.305 75.1446 166.593 74.8366 166.801 74.4366C167.017 74.0286 167.125 73.5566 167.125 73.0206ZM175.48 72.6966C175.48 72.9846 175.472 73.2046 175.456 73.3566H170.02C170.044 73.8526 170.164 74.2766 170.38 74.6286C170.596 74.9806 170.88 75.2486 171.232 75.4326C171.584 75.6086 171.968 75.6966 172.384 75.6966C172.928 75.6966 173.384 75.5646 173.752 75.3006C174.128 75.0366 174.376 74.6806 174.496 74.2326H175.384C175.224 74.8726 174.88 75.3966 174.352 75.8046C173.832 76.2046 173.176 76.4046 172.384 76.4046C171.768 76.4046 171.216 76.2686 170.728 75.9966C170.24 75.7166 169.856 75.3246 169.576 74.8206C169.304 74.3086 169.168 73.7126 169.168 73.0326C169.168 72.3526 169.304 71.7566 169.576 71.2446C169.848 70.7326 170.228 70.3406 170.716 70.0686C171.204 69.7966 171.76 69.6606 172.384 69.6606C173.008 69.6606 173.552 69.7966 174.016 70.0686C174.488 70.3406 174.848 70.7086 175.096 71.1726C175.352 71.6286 175.48 72.1366 175.48 72.6966ZM174.628 72.6726C174.636 72.1846 174.536 71.7686 174.328 71.4246C174.128 71.0806 173.852 70.8206 173.5 70.6446C173.148 70.4686 172.764 70.3806 172.348 70.3806C171.724 70.3806 171.192 70.5806 170.752 70.9806C170.312 71.3806 170.068 71.9446 170.02 72.6726H174.628ZM177.887 70.9206C178.071 70.5126 178.351 70.1966 178.727 69.9726C179.111 69.7486 179.579 69.6366 180.131 69.6366V70.5126H179.903C179.295 70.5126 178.807 70.6766 178.439 71.0046C178.071 71.3326 177.887 71.8806 177.887 72.6486V76.3086H177.047V69.7566H177.887V70.9206ZM184.196 74.2686V73.6326L188.564 67.7526H189.56V73.5366H190.844V74.2686H189.56V76.3086H188.732V74.2686H184.196ZM188.768 68.6766L185.168 73.5366H188.768V68.6766ZM196.205 71.5086V72.2166H191.537V71.5086H196.205ZM203.154 69.8046C202.978 68.7646 202.374 68.2446 201.342 68.2446C200.558 68.2446 199.97 68.5486 199.578 69.1566C199.186 69.7646 199.006 70.7606 199.038 72.1446C199.198 71.6646 199.502 71.2886 199.95 71.0166C200.406 70.7366 200.926 70.5966 201.51 70.5966C202.35 70.5966 203.014 70.8566 203.502 71.3766C203.998 71.8886 204.246 72.5966 204.246 73.5006C204.246 74.0286 204.142 74.5086 203.934 74.9406C203.734 75.3646 203.422 75.7046 202.998 75.9606C202.582 76.2166 202.062 76.3446 201.438 76.3446C200.246 76.3446 199.422 75.9646 198.966 75.2046C198.518 74.4446 198.294 73.3686 198.294 71.9766C198.294 69.0166 199.31 67.5366 201.342 67.5366C202.11 67.5366 202.714 67.7486 203.154 68.1726C203.594 68.5886 203.854 69.1326 203.934 69.8046H203.154ZM201.354 71.3166C200.978 71.3166 200.622 71.3926 200.286 71.5446C199.95 71.6966 199.674 71.9286 199.458 72.2406C199.25 72.5446 199.146 72.9206 199.146 73.3686C199.146 74.0166 199.338 74.5566 199.722 74.9886C200.106 75.4206 200.666 75.6366 201.402 75.6366C202.018 75.6366 202.51 75.4486 202.878 75.0726C203.246 74.6966 203.43 74.1846 203.43 73.5366C203.43 72.8406 203.25 72.2966 202.89 71.9046C202.53 71.5126 202.018 71.3166 201.354 71.3166ZM207.059 70.4646V74.5326C207.059 74.9326 207.135 75.2086 207.287 75.3606C207.439 75.5126 207.707 75.5886 208.091 75.5886H208.859V76.3086H207.959C207.367 76.3086 206.927 76.1726 206.639 75.9006C206.351 75.6206 206.207 75.1646 206.207 74.5326V70.4646H205.295V69.7566H206.207V68.1126H207.059V69.7566H208.859V70.4646H207.059ZM213.394 69.6366C213.89 69.6366 214.334 69.7406 214.726 69.9486C215.126 70.1566 215.438 70.4766 215.662 70.9086C215.894 71.3326 216.01 71.8526 216.01 72.4686V76.3086H215.182V72.5646C215.182 71.8526 215.002 71.3086 214.642 70.9326C214.29 70.5566 213.806 70.3686 213.19 70.3686C212.558 70.3686 212.054 70.5686 211.678 70.9686C211.302 71.3686 211.114 71.9566 211.114 72.7326V76.3086H210.274V67.4286H211.114V70.8726C211.322 70.4806 211.626 70.1766 212.026 69.9606C212.434 69.7446 212.89 69.6366 213.394 69.6366Z" fill="#F0FA00"/>
</svg>
